<svg width="29" height="29" viewBox="0 0 29 29" fill="none" xmlns="http://www.w3.org/2000/svg">
<g clip-path="url(#clip0_464_1604)">
<path d="M8.47189 7.34765C8.47189 7.04272 8.59302 6.75028 8.80864 6.53466C9.02426 6.31904 9.3167 6.19791 9.62162 6.19791H10.7714V7.34765C10.7714 7.65258 10.8925 7.94501 11.1081 8.16063C11.3237 8.37625 11.6162 8.49738 11.9211 8.49738C12.226 8.49738 12.5185 8.37625 12.7341 8.16063C12.9497 7.94501 13.0708 7.65258 13.0708 7.34765V6.19791C13.0708 5.58805 12.8286 5.00317 12.3973 4.57194C11.9661 4.1407 11.3812 3.89844 10.7714 3.89844H9.62162C8.70684 3.89844 7.82952 4.26184 7.18267 4.90869C6.53581 5.55554 6.17242 6.43286 6.17242 7.34765V13.0963H5.02268C4.41282 13.0963 3.82794 13.3386 3.39671 13.7698C2.96547 14.2011 2.72321 14.7859 2.72321 15.3958V16.5455C2.72257 17.6704 2.99728 18.7783 3.52337 19.7725C4.04945 20.7668 4.81091 21.6171 5.74126 22.2494L5.35955 22.6311C5.24974 22.7372 5.16215 22.864 5.10189 23.0043C5.04164 23.1446 5.00992 23.2954 5.00859 23.4481C5.00727 23.6008 5.03636 23.7521 5.09417 23.8934C5.15198 24.0347 5.23735 24.1631 5.3453 24.2711C5.45325 24.379 5.58162 24.4644 5.72292 24.5222C5.86422 24.58 6.01562 24.6091 6.16828 24.6078C6.32094 24.6064 6.47181 24.5747 6.61208 24.5145C6.75235 24.4542 6.87922 24.3666 6.98528 24.2568L7.99245 23.2508C8.51443 23.3773 9.06055 23.444 9.62162 23.444H18.8195C19.3806 23.444 19.9267 23.3773 20.4487 23.2508L21.4559 24.2568C21.6727 24.4663 21.9631 24.5821 22.2646 24.5795C22.566 24.5769 22.8544 24.456 23.0676 24.2428C23.2808 24.0296 23.4017 23.7413 23.4043 23.4398C23.4069 23.1384 23.291 22.8479 23.0816 22.6311L22.6999 22.2494C23.6302 21.6171 24.3917 20.7668 24.9178 19.7725C25.4439 18.7783 25.7186 17.6704 25.7179 16.5455V15.3958C25.7179 14.7859 25.4757 14.2011 25.0444 13.7698C24.6132 13.3386 24.0283 13.0963 23.4185 13.0963H8.47189V7.34765Z" fill="#4F4F4F"/>
</g>
<defs>
<clipPath id="clip0_464_1604">
<rect width="27.5937" height="27.5937" fill="white" transform="translate(0.42395 0.449463)"/>
</clipPath>
</defs>
</svg>
