<svg width="29" height="29" viewBox="0 0 29 29" fill="none" xmlns="http://www.w3.org/2000/svg">
<path d="M23.0513 13.0975C23.8565 13.0974 24.6313 13.4046 25.2178 13.9562C25.8042 14.5078 26.1582 15.2624 26.2074 16.0661L26.2131 16.2592V23.7325C26.213 23.951 26.13 24.1613 25.9809 24.321C25.8317 24.4806 25.6275 24.5777 25.4096 24.5926C25.1916 24.6075 24.9761 24.5391 24.8066 24.4012C24.6372 24.2633 24.5263 24.0662 24.4966 23.8498L24.4885 23.7325V21.1456H4.94299V23.7325C4.94298 23.9409 4.86752 24.1422 4.73055 24.2993C4.59359 24.4563 4.4044 24.5584 4.19796 24.5868L4.08069 24.5948C3.87231 24.5948 3.67099 24.5194 3.51395 24.3824C3.3569 24.2454 3.25477 24.0562 3.22643 23.8498L3.21838 23.7325V16.2592C3.21834 15.4541 3.52547 14.6793 4.07711 14.0928C4.62876 13.5063 5.38336 13.1524 6.187 13.1032L6.38016 13.0975H23.0513ZM8.67963 5.04932H20.7519C21.557 5.04928 22.3318 5.3564 22.9183 5.90805C23.5048 6.45969 23.8587 7.21429 23.9079 8.01794L23.9136 8.21109V11.9477H20.4644L20.4564 11.8132C20.4261 11.5566 20.3103 11.3176 20.1275 11.1349C19.9448 10.9522 19.7059 10.8363 19.4492 10.806L19.3147 10.798H17.0152C16.7336 10.798 16.4618 10.9014 16.2514 11.0886C16.0409 11.2757 15.9065 11.5335 15.8735 11.8132L15.8655 11.9477H13.566L13.558 11.8132C13.5277 11.5566 13.4119 11.3176 13.2291 11.1349C13.0464 10.9522 12.8074 10.8363 12.5508 10.806L12.4163 10.798H10.1168C9.83519 10.798 9.56339 10.9014 9.35295 11.0886C9.14251 11.2757 9.00806 11.5335 8.97511 11.8132L8.96706 11.9477H5.51786V8.21109C5.51782 7.40595 5.82494 6.63112 6.37659 6.04465C6.92823 5.45818 7.68283 5.10425 8.48647 5.05507L8.67963 5.04932Z" fill="#4F4F4F"/>
</svg>
