<svg width="28" height="28" viewBox="0 0 28 28" fill="none" xmlns="http://www.w3.org/2000/svg">
<circle cx="14" cy="14" r="13.75" stroke="#060614" stroke-width="0.5" stroke-dasharray="2 2"/>
<path fill-rule="evenodd" clip-rule="evenodd" d="M3.11133 14.2592C3.11133 20.4162 8.10253 25.4074 14.2595 25.4074C20.4165 25.4074 25.4076 20.4162 25.4076 14.2592C25.4076 8.10228 20.4165 3.11108 14.2595 3.11108C8.10253 3.11108 3.11133 8.10228 3.11133 14.2592ZM19.1083 10.3837C19.5305 10.7707 19.559 11.4267 19.1721 11.8489L13.4684 18.0711C13.2772 18.2796 13.0092 18.401 12.7264 18.4072C12.4436 18.4133 12.1706 18.3037 11.9706 18.1036L9.37803 15.511C8.97304 15.1061 8.97304 14.4494 9.37803 14.0445C9.78302 13.6395 10.4396 13.6395 10.8446 14.0445L12.6714 15.8712L17.6431 10.4474C18.0301 10.0252 18.6862 9.99666 19.1083 10.3837Z" fill="#060614"/>
</svg>
