<svg width="26" height="26" viewBox="0 0 26 26" fill="none" xmlns="http://www.w3.org/2000/svg">
<path d="M18.0082 10.0136L18.0083 10.0136C18.8158 9.57195 19.1124 8.55922 18.6708 7.75164C18.2291 6.94409 17.2165 6.64736 16.4089 7.08904C14.1612 8.31823 12.341 10.6598 11.1464 12.4889L11.1464 12.4889C10.8418 12.9555 10.5677 13.4047 10.3275 13.8168C10.1998 13.707 10.0761 13.6056 9.95891 13.513L9.95884 13.5129C9.6211 13.2459 9.31714 13.0352 9.09464 12.8895L9.09472 12.8894L9.08457 12.8831L8.71702 12.6548L8.70905 12.6498L8.70089 12.6452C7.90133 12.1892 6.88348 12.4677 6.42745 13.2673C5.9733 14.0636 6.24766 15.0762 7.03946 15.535L7.27261 15.6808C7.429 15.7834 7.6482 15.9354 7.89151 16.1278L7.89156 16.1278C8.40423 16.5331 8.92705 17.0421 9.24487 17.5735L9.67398 17.3169L9.24488 17.5735C9.56272 18.1049 10.1489 18.4162 10.767 18.3822L10.7671 18.3822C11.3838 18.3481 11.9307 17.9755 12.1889 17.4153L12.3 17.1831C12.3003 17.1824 12.3007 17.1818 12.301 17.1811C12.3779 17.0239 12.4935 16.7933 12.644 16.5089L12.6441 16.5088C12.9474 15.9357 13.3884 15.1521 13.9373 14.3116C15.0764 12.5674 16.5227 10.826 18.0082 10.0136ZM12.5417 24.6761C5.89124 24.6761 0.5 19.2849 0.5 12.6344C0.5 5.98401 5.89124 0.592773 12.5417 0.592773C19.1921 0.592773 24.5833 5.98401 24.5833 12.6344C24.5833 19.2849 19.1921 24.6761 12.5417 24.6761Z" stroke="#060614"/>
</svg>
