<svg width="89" height="73" viewBox="0 0 89 73" fill="none" xmlns="http://www.w3.org/2000/svg">
<g opacity="0.1">
<path fill-rule="evenodd" clip-rule="evenodd" d="M46.0153 0.0397846C38.9192 -0.19653 31.7498 1.73947 25.5602 5.8711C18.6083 10.5164 13.75 17.3762 11.5122 25.0448C10.8942 24.9693 10.1542 25.0026 9.27553 25.2511C5.99486 26.182 3.52742 28.8702 2.41796 31.2378C0.978992 34.3232 0.372118 38.4038 1.01228 42.6164C1.648 46.8157 3.42202 50.2772 5.64094 52.4262C7.86652 54.5764 10.3794 55.2753 12.8757 54.7505C16.5924 53.9573 18.4352 53.3637 17.9149 49.9011L15.3953 33.1161C15.9034 24.0318 20.6064 15.4801 28.4725 10.2213C39.0013 3.18843 52.8052 3.63887 62.848 11.3485C69.8343 16.705 73.8904 24.7308 74.3586 33.156L72.5968 44.8974C68.6671 55.6514 58.9249 63.1003 47.6517 64.1577H40.1451C38.208 64.1577 36.6481 65.7176 36.6481 67.6525V69.4964C36.6481 71.4324 38.208 72.9923 40.1451 72.9923H49.6099C51.5459 72.9923 53.0992 71.4324 53.0992 69.4964V68.5323C61.5998 66.4576 69.0199 61.2331 73.8516 53.9473L76.8838 54.7517C79.3512 55.3918 81.8941 54.5764 84.1185 52.4273C86.3375 50.2772 88.1104 46.8168 88.7472 42.6175C89.3896 38.4049 88.765 34.3309 87.3426 31.2389C85.9148 28.1468 83.7879 26.1831 81.3327 25.4786C80.3042 25.1824 79.1881 25.0736 78.2306 25.0448C76.207 18.1107 72.041 11.8045 66.0366 7.20024C60.1331 2.67031 53.1114 0.272771 46.0153 0.0397846Z" fill="#060614"/>
<path fill-rule="evenodd" clip-rule="evenodd" d="M57.0931 30.2373C59.5949 30.2373 61.623 32.2653 61.6286 34.7738C61.623 37.2757 59.5949 39.3093 57.0931 39.3093C54.5846 39.3093 52.551 37.2757 52.551 34.7738C52.551 32.2665 54.5857 30.2373 57.0931 30.2373ZM44.878 30.2373C47.3853 30.2373 49.4134 32.2653 49.4134 34.7738C49.4134 37.2757 47.3853 39.3093 44.878 39.3093C42.3684 39.3093 40.3403 37.2757 40.3403 34.7738C40.3403 32.2665 42.3684 30.2373 44.878 30.2373ZM32.6673 30.2373C35.1691 30.2373 37.2027 32.2653 37.2027 34.7738C37.2027 37.2757 35.1691 39.3093 32.6673 39.3093C30.1599 39.3093 28.1307 37.2757 28.1307 34.7738C28.1307 32.2665 30.1599 30.2373 32.6673 30.2373ZM44.878 10.7529C31.5756 10.7529 20.856 21.1197 20.856 34.7738C20.856 41.3318 23.3356 47.1277 27.3751 51.3802L25.9417 57.8062C25.4691 59.9208 26.9358 61.3432 28.8363 60.2847L35.1114 56.7844C38.0936 58.0791 41.392 58.7947 44.878 58.7947C58.1848 58.7947 68.8978 48.4346 68.8978 34.7738C68.8978 21.1197 58.1848 10.7529 44.878 10.7529Z" fill="#060614"/>
</g>
</svg>
