<svg width="22" height="22" viewBox="0 0 22 22" fill="none" xmlns="http://www.w3.org/2000/svg">
<path d="M11.0037 21.6766C10.7007 21.6784 10.4042 21.5899 10.1517 21.4224C9.89931 21.255 9.70247 21.0161 9.58631 20.7364C9.47015 20.4566 9.43994 20.1486 9.49952 19.8516C9.5591 19.5546 9.70579 19.282 9.92086 19.0687L18.0037 11.0011L9.92086 2.93356C9.67102 2.64181 9.54046 2.26653 9.55529 1.88271C9.57012 1.49888 9.72923 1.13479 10.0008 0.863185C10.2724 0.59158 10.6365 0.432467 11.0204 0.417641C11.4042 0.402816 11.7795 0.533371 12.0712 0.783216L21.2216 9.9336C21.5056 10.2193 21.6651 10.6059 21.6651 11.0088C21.6651 11.4117 21.5056 11.7982 21.2216 12.0839L12.0712 21.2343C11.7871 21.5161 11.4037 21.6749 11.0037 21.6766Z" fill="#4F4F4F"/>
<path d="M1.85327 21.6765C1.55035 21.6782 1.25378 21.5897 1.00135 21.4223C0.74892 21.2548 0.552078 21.016 0.435919 20.7362C0.31976 20.4565 0.289546 20.1485 0.34913 19.8515C0.408714 19.5545 0.555395 19.2819 0.770474 19.0686L8.85331 11.001L0.770474 2.93344C0.483299 2.64626 0.321965 2.25677 0.321965 1.85064C0.321965 1.44451 0.483299 1.05502 0.770474 0.767845C1.05765 0.480669 1.44714 0.319336 1.85327 0.319336C2.2594 0.319336 2.64889 0.480669 2.93606 0.767845L12.0864 9.91823C12.3705 10.204 12.5299 10.5905 12.5299 10.9934C12.5299 11.3963 12.3705 11.7828 12.0864 12.0686L2.93606 21.219C2.79482 21.3631 2.62639 21.4777 2.44052 21.5562C2.25465 21.6348 2.05505 21.6756 1.85327 21.6765Z" fill="#4F4F4F"/>
</svg>
