<svg width="60" height="60" viewBox="0 0 60 60" fill="none" xmlns="http://www.w3.org/2000/svg">
<g clip-path="url(#clip0_442_1321)">
<path d="M16.9183 25.1127H11.5235C9.53612 25.1127 7.9194 26.7295 7.9194 28.7168V31.283C7.9194 33.2704 9.53624 34.8871 11.5235 34.8871H16.9182C18.9056 34.8871 20.5223 33.2702 20.5223 31.283V28.7168C20.5224 26.7294 18.9057 25.1127 16.9183 25.1127ZM18.7403 31.2832C18.7403 32.2879 17.923 33.1052 16.9182 33.1052H11.5235C10.5189 33.1052 9.70147 32.288 9.70147 31.2832V28.717C9.70147 27.7124 10.5187 26.895 11.5235 26.895H16.9182C17.9229 26.895 18.7403 27.7123 18.7403 28.717V31.2832Z" fill="#060614"/>
<path d="M48.4765 25.1127H43.0816C41.0943 25.1127 39.4775 26.7295 39.4775 28.7168V31.283C39.4775 33.2704 41.0944 34.8871 43.0816 34.8871H48.4764C50.4638 34.8871 52.0805 33.2702 52.0805 31.283V28.7168C52.0806 26.7294 50.4637 25.1127 48.4765 25.1127ZM50.2984 31.2832C50.2984 32.2879 49.4811 33.1052 48.4764 33.1052H43.0816C42.077 33.1052 41.2596 32.288 41.2596 31.2832V28.717C41.2596 27.7124 42.0769 26.895 43.0816 26.895H48.4764C49.481 26.895 50.2984 27.7123 50.2984 28.717V31.2832Z" fill="#060614"/>
<path d="M32.6974 0H27.3027C25.3153 0 23.6986 1.61684 23.6986 3.6041V6.17027C23.6986 8.15766 25.3156 9.77437 27.3027 9.77437H32.6974C34.6848 9.77437 36.3015 8.15754 36.3015 6.17027V3.6041C36.3015 1.61684 34.6847 0 32.6974 0ZM34.5194 6.17039C34.5194 7.17504 33.7021 7.99242 32.6973 7.99242H27.3026C26.2979 7.99242 25.4806 7.17516 25.4806 6.17039V3.6041C25.4806 2.59945 26.2978 1.78207 27.3026 1.78207H32.6973C33.702 1.78207 34.5194 2.59934 34.5194 3.6041V6.17039Z" fill="#060614"/>
<path d="M9.02871 50.2255H3.6341C1.64672 50.2255 0.0299988 51.8423 0.0299988 53.8296V56.3958C0.0299988 57.1816 0.278553 57.9286 0.748827 58.5559C1.04391 58.9496 1.60266 59.0296 1.99641 58.7344C2.39016 58.4393 2.47008 57.8805 2.17488 57.4868C1.93758 57.1703 1.8123 56.793 1.8123 56.3957V53.8295C1.8123 52.8248 2.62957 52.0075 3.63434 52.0075H9.02906C10.0337 52.0075 10.8511 52.8247 10.8511 53.8295V56.3957C10.8511 57.4003 10.0338 58.2177 9.02906 58.2177H4.22812C3.73605 58.2177 3.33703 58.6167 3.33703 59.1088C3.33703 59.6009 3.73605 59.9999 4.22812 59.9999H9.02871C11.0161 59.9999 12.6328 58.383 12.6328 56.3958V53.8296C12.6329 51.8422 11.0161 50.2255 9.02871 50.2255Z" fill="#060614"/>
<path d="M24.8079 50.2255H19.4132C17.4258 50.2255 15.8091 51.8423 15.8091 53.8296V56.3958C15.8091 58.3832 17.4259 59.9999 19.4132 59.9999H24.8079C26.7953 59.9999 28.412 58.383 28.412 56.3958V53.8296C28.4121 51.8422 26.7951 50.2255 24.8079 50.2255ZM26.6299 56.3959C26.6299 57.4005 25.8126 58.2179 24.8079 58.2179H19.4132C18.4085 58.2179 17.5911 57.4007 17.5911 56.3959V53.8297C17.5911 52.8251 18.4084 52.0077 19.4132 52.0077H24.8079C25.8125 52.0077 26.6299 52.825 26.6299 53.8297V56.3959Z" fill="#060614"/>
<path d="M40.5868 50.2255H35.1921C33.2047 50.2255 31.588 51.8423 31.588 53.8296V56.3958C31.588 58.3832 33.2048 59.9999 35.1921 59.9999H40.5868C42.5742 59.9999 44.1909 58.383 44.1909 56.3958V53.8296C44.1912 51.8422 42.5742 50.2255 40.5868 50.2255ZM40.587 58.2178H35.1921C34.1875 58.2178 33.3701 57.4005 33.3701 56.3958V53.8296C33.3701 52.825 34.1873 52.0076 35.1921 52.0076H40.5868C41.5915 52.0076 42.4089 52.8248 42.4089 53.8296V56.3958H42.409C42.409 57.4005 41.5916 58.2178 40.587 58.2178Z" fill="#060614"/>
<path d="M56.3659 50.2255H50.9712C48.9838 50.2255 47.3671 51.8423 47.3671 53.8296V56.3958C47.3671 58.3832 48.9839 59.9999 50.9712 59.9999H56.3659C58.3533 59.9999 59.97 58.383 59.97 56.3958V53.8296C59.9701 51.8422 58.3533 50.2255 56.3659 50.2255ZM58.1879 56.3959C58.1879 57.4005 57.3707 58.2179 56.3659 58.2179H50.9712C49.9665 58.2179 49.1491 57.4007 49.1491 56.3959V53.8297C49.1491 52.8251 49.9664 52.0077 50.9712 52.0077H56.3659C57.3705 52.0077 58.1879 52.825 58.1879 53.8297V56.3959Z" fill="#060614"/>
<path d="M22.1105 42.4478H15.1121V36.923C15.1121 36.4309 14.7131 36.0319 14.2211 36.0319C13.729 36.0319 13.33 36.4309 13.33 36.923V42.4478H6.33152C5.83945 42.4478 5.44043 42.8468 5.44043 43.3389V48.0913C5.44043 48.5834 5.83945 48.9824 6.33152 48.9824C6.82359 48.9824 7.22262 48.5834 7.22262 48.0913V44.2298H21.2195V48.0913C21.2195 48.5834 21.6184 48.9824 22.1105 48.9824C22.6025 48.9824 23.0016 48.5834 23.0016 48.0913V43.3389C23.0014 42.8468 22.6025 42.4478 22.1105 42.4478Z" fill="#060614"/>
<path d="M53.6685 42.4478H46.6702V36.923C46.6702 36.4309 46.2711 36.0319 45.7791 36.0319C45.287 36.0319 44.888 36.4309 44.888 36.923V42.4478H37.8897C37.3976 42.4478 36.9986 42.8468 36.9986 43.3389V48.0913C36.9986 48.5834 37.3976 48.9824 37.8897 48.9824C38.3817 48.9824 38.7808 48.5834 38.7808 48.0913V44.2298H52.7775V48.0913C52.7775 48.5834 53.1765 48.9824 53.6686 48.9824C54.1607 48.9824 54.5597 48.5834 54.5597 48.0913V43.3389C54.5596 42.8468 54.1607 42.4478 53.6685 42.4478Z" fill="#060614"/>
<path d="M45.7791 17.5407H41.3371C40.845 17.5407 40.446 17.9398 40.446 18.4318C40.446 18.9239 40.845 19.3229 41.3371 19.3229H44.888V23.1844C44.888 23.6764 45.287 24.0755 45.7791 24.0755C46.2711 24.0755 46.6702 23.6764 46.6702 23.1844V18.432C46.6702 17.9398 46.2711 17.5407 45.7791 17.5407Z" fill="#060614"/>
<path d="M38.3665 17.5407H30.8911V12.0159C30.8911 11.5239 30.4921 11.1248 30 11.1248C29.5079 11.1248 29.1089 11.5239 29.1089 12.0159V17.5407H14.2209C13.7289 17.5407 13.3298 17.9398 13.3298 18.4318V23.1843C13.3298 23.6763 13.7289 24.0754 14.2209 24.0754C14.713 24.0754 15.112 23.6763 15.112 23.1843V19.3228H38.3665C38.8585 19.3228 39.2576 18.9238 39.2576 18.4317C39.2576 17.9396 38.8587 17.5407 38.3665 17.5407Z" fill="#060614"/>
</g>
<defs>
<clipPath id="clip0_442_1321">
<rect width="60" height="60" fill="white"/>
</clipPath>
</defs>
</svg>
