<svg width="60" height="60" viewBox="0 0 60 60" fill="none" xmlns="http://www.w3.org/2000/svg">
<path d="M33.1245 18.75C33.1245 18.1319 32.9412 17.5278 32.5979 17.0139C32.2545 16.5 31.7664 16.0994 31.1954 15.8629C30.6244 15.6264 29.9961 15.5645 29.3899 15.6851C28.7837 15.8056 28.2269 16.1033 27.7898 16.5403C27.3528 16.9773 27.0551 17.5342 26.9346 18.1404C26.814 18.7465 26.8759 19.3749 27.1124 19.9459C27.3489 20.5169 27.7495 21.005 28.2634 21.3484C28.7773 21.6917 29.3815 21.875 29.9995 21.875C30.828 21.8741 31.6223 21.5445 32.2082 20.9587C32.794 20.3728 33.1236 19.5785 33.1245 18.75ZM28.1245 18.75C28.1245 18.3792 28.2345 18.0167 28.4405 17.7083C28.6465 17.4 28.9394 17.1597 29.282 17.0177C29.6246 16.8758 30.0016 16.8387 30.3653 16.911C30.729 16.9834 31.0631 17.162 31.3253 17.4242C31.5876 17.6864 31.7661 18.0205 31.8385 18.3842C31.9108 18.7479 31.8737 19.1249 31.7318 19.4675C31.5899 19.8102 31.3496 20.103 31.0412 20.309C30.7329 20.515 30.3704 20.625 29.9995 20.625C29.5024 20.6245 29.0258 20.4267 28.6743 20.0752C28.3228 19.7237 28.1251 19.2471 28.1245 18.75ZM33.1245 26.25C33.2903 26.25 33.4493 26.3159 33.5665 26.4331C33.6837 26.5503 33.7495 26.7093 33.7495 26.875V43.75C33.7495 43.9158 33.6837 44.0747 33.5665 44.192C33.4493 44.3092 33.2903 44.375 33.1245 44.375C32.9588 44.375 32.7998 44.3092 32.6826 44.192C32.5654 44.0747 32.4995 43.9158 32.4995 43.75V26.875C32.4995 26.7093 32.5654 26.5503 32.6826 26.4331C32.7998 26.3159 32.9588 26.25 33.1245 26.25ZM26.8745 26.25C27.0403 26.25 27.1993 26.3159 27.3165 26.4331C27.4337 26.5503 27.4995 26.7093 27.4995 26.875V43.75C27.4995 43.9158 27.4337 44.0747 27.3165 44.192C27.1993 44.3092 27.0403 44.375 26.8745 44.375C26.7088 44.375 26.5498 44.3092 26.4326 44.192C26.3154 44.0747 26.2495 43.9158 26.2495 43.75V26.875C26.2495 26.7093 26.3154 26.5503 26.4326 26.4331C26.5498 26.3159 26.7088 26.25 26.8745 26.25ZM29.9995 32.5C30.1653 32.5 30.3243 32.5659 30.4415 32.6831C30.5587 32.8003 30.6245 32.9593 30.6245 33.125V43.75C30.6245 43.9158 30.5587 44.0747 30.4415 44.192C30.3243 44.3092 30.1653 44.375 29.9995 44.375C29.8338 44.375 29.6748 44.3092 29.5576 44.192C29.4404 44.0747 29.3745 43.9158 29.3745 43.75V33.125C29.3745 32.9593 29.4404 32.8003 29.5576 32.6831C29.6748 32.5659 29.8338 32.5 29.9995 32.5ZM26.2495 23.125H33.7495C34.4123 23.1258 35.0478 23.3894 35.5165 23.8581C35.9852 24.3267 36.2488 24.9622 36.2495 25.625V35C36.2495 35.1658 36.1837 35.3247 36.0665 35.442C35.9493 35.5592 35.7903 35.625 35.6245 35.625C35.4588 35.625 35.2998 35.5592 35.1826 35.442C35.0654 35.3247 34.9995 35.1658 34.9995 35V25.625C34.9991 25.2936 34.8673 24.9759 34.633 24.7416C34.3987 24.5072 34.0809 24.3754 33.7495 24.375H26.2495C25.9181 24.3754 25.6004 24.5072 25.3661 24.7416C25.1317 24.9759 24.9999 25.2936 24.9995 25.625V35C24.9995 35.1658 24.9337 35.3247 24.8165 35.442C24.6993 35.5592 24.5403 35.625 24.3745 35.625C24.2088 35.625 24.0498 35.5592 23.9326 35.442C23.8154 35.3247 23.7495 35.1658 23.7495 35V25.625C23.7503 24.9622 24.0139 24.3267 24.4826 23.8581C24.9513 23.3894 25.5867 23.1258 26.2495 23.125ZM17.4995 30C17.4985 27.7415 18.1097 25.525 19.2681 23.5862C20.4265 21.6474 22.0887 20.0588 24.078 18.9895C24.2239 18.9116 24.3946 18.8947 24.5529 18.9425C24.7112 18.9903 24.8441 19.0988 24.9225 19.2443C25.0009 19.3899 25.0185 19.5606 24.9714 19.719C24.9242 19.8775 24.8162 20.0108 24.671 20.0898C22.881 21.0529 21.3853 22.4829 20.3427 24.2278C19.3001 25.9726 18.7495 27.9674 18.7495 30C18.7495 32.0327 19.3001 34.0274 20.3427 35.7723C21.3853 37.5172 22.881 38.9471 24.671 39.9102C24.7436 39.9489 24.8079 40.0016 24.86 40.0653C24.9122 40.1289 24.9513 40.2022 24.9751 40.281C24.9989 40.3598 25.0069 40.4425 24.9986 40.5243C24.9903 40.6062 24.966 40.6857 24.927 40.7581C24.8879 40.8305 24.835 40.8946 24.7711 40.9465C24.7073 40.9984 24.6338 41.0372 24.5549 41.0607C24.4761 41.0841 24.3933 41.0918 24.3115 41.0832C24.2296 41.0746 24.1503 41.0499 24.078 41.0106C22.0887 39.9412 20.4265 38.3526 19.2681 36.4138C18.1097 34.475 17.4985 32.2585 17.4995 30ZM35.0745 19.2431C35.1532 19.0972 35.2865 18.9885 35.4453 18.9409C35.6041 18.8934 35.7753 18.9108 35.9212 18.9895C37.9099 20.0596 39.5715 21.6483 40.7298 23.587C41.8881 25.5256 42.4997 27.7417 42.4997 30C42.4997 32.2583 41.8881 34.4744 40.7298 36.4131C39.5715 38.3517 37.9099 39.9404 35.9212 41.0106C35.7754 41.0884 35.6046 41.1053 35.4464 41.0575C35.2881 41.0098 35.1552 40.9012 35.0768 40.7557C34.9983 40.6102 34.9808 40.4395 35.0279 40.281C35.075 40.1226 35.183 39.9892 35.3282 39.9102C37.1182 38.9471 38.614 37.5172 39.6566 35.7723C40.6992 34.0274 41.2497 32.0327 41.2497 30C41.2497 27.9674 40.6992 25.9726 39.6566 24.2278C38.614 22.4829 37.1182 21.0529 35.3282 20.0898C35.1823 20.0112 35.0736 19.8778 35.026 19.719C34.9784 19.5602 34.9959 19.3891 35.0745 19.2431ZM29.3745 9.95464V13.75C29.3745 13.9158 29.4404 14.0747 29.5576 14.192C29.6748 14.3092 29.8338 14.375 29.9995 14.375C30.1653 14.375 30.3243 14.3092 30.4415 14.192C30.5587 14.0747 30.6245 13.9158 30.6245 13.75V9.95464C31.7193 9.79663 32.7135 9.22982 33.4072 8.36829C34.1009 7.50676 34.4425 6.41445 34.3633 5.31121C34.2841 4.20796 33.7899 3.17566 32.9803 2.42206C32.1706 1.66847 31.1056 1.24951 29.9995 1.24951C28.8934 1.24951 27.8284 1.66847 27.0188 2.42206C26.2091 3.17566 25.715 4.20796 25.6358 5.31121C25.5565 6.41445 25.8982 7.50676 26.5918 8.36829C27.2855 9.22982 28.2798 9.79663 29.3745 9.95464ZM29.9995 2.50001C30.6176 2.50001 31.2218 2.68329 31.7357 3.02667C32.2496 3.37005 32.6501 3.85811 32.8866 4.42913C33.1232 5.00015 33.1851 5.62848 33.0645 6.23467C32.9439 6.84086 32.6463 7.39768 32.2092 7.83472C31.7722 8.27176 31.2154 8.56939 30.6092 8.68997C30.003 8.81055 29.3747 8.74866 28.8036 8.51214C28.2326 8.27561 27.7446 7.87507 27.4012 7.36117C27.0578 6.84727 26.8745 6.24308 26.8745 5.62501C26.8755 4.7965 27.205 4.00219 27.7909 3.41635C28.3767 2.8305 29.171 2.50096 29.9995 2.50001ZM41.49 19.1345C41.5721 19.1346 41.6534 19.1185 41.7293 19.0871C41.8051 19.0557 41.874 19.0096 41.932 18.9515L44.6151 16.2683C45.501 16.9318 46.6054 17.235 47.7059 17.1171C48.8065 16.9991 49.8214 16.4686 50.5466 15.6324C51.2718 14.7962 51.6533 13.7164 51.6144 12.6102C51.5754 11.5041 51.119 10.4537 50.3368 9.67058C49.5547 8.88743 48.5049 8.42962 47.3988 8.38928C46.2927 8.34895 45.2124 8.72908 44.3753 9.45318C43.5381 10.1773 43.0064 11.1916 42.887 12.292C42.7676 13.3923 43.0694 14.4971 43.7318 15.3839L41.048 18.0676C40.9606 18.1551 40.9011 18.2664 40.877 18.3876C40.8529 18.5089 40.8653 18.6345 40.9126 18.7487C40.9599 18.8629 41.04 18.9605 41.1428 19.0292C41.2456 19.0979 41.3664 19.1345 41.49 19.1345ZM45.0255 10.5546C45.4626 10.1176 46.0194 9.81997 46.6256 9.69941C47.2318 9.57886 47.8601 9.64076 48.4311 9.87729C49.0021 10.1138 49.4901 10.5144 49.8335 11.0283C50.1769 11.5422 50.3601 12.1463 50.3601 12.7644C50.3601 13.3824 50.1769 13.9866 49.8335 14.5005C49.4901 15.0144 49.0021 15.415 48.4311 15.6515C47.8601 15.888 47.2318 15.9499 46.6256 15.8294C46.0194 15.7088 45.4626 15.4112 45.0255 14.9742C44.4403 14.3877 44.1117 13.5929 44.1117 12.7644C44.1117 11.9358 44.4403 11.1411 45.0255 10.5546ZM54.3745 25.625C53.3229 25.6264 52.3069 26.006 51.512 26.6945C50.7172 27.383 50.1964 28.3344 50.0449 29.375H46.2495C46.0838 29.375 45.9248 29.4409 45.8076 29.5581C45.6904 29.6753 45.6245 29.8343 45.6245 30C45.6245 30.1658 45.6904 30.3247 45.8076 30.442C45.9248 30.5592 46.0838 30.625 46.2495 30.625H50.0449C50.1647 31.455 50.5205 32.2331 51.07 32.8667C51.6195 33.5002 52.3395 33.9624 53.1443 34.1983C53.9491 34.4343 54.8047 34.4339 55.6092 34.1973C56.4138 33.9607 57.1334 33.4979 57.6824 32.8639C58.2314 32.23 58.5866 31.4516 58.7057 30.6214C58.8248 29.7913 58.7028 28.9444 58.3543 28.1817C58.0057 27.4189 57.4453 26.7724 56.7397 26.3191C56.0341 25.8659 55.2132 25.6249 54.3745 25.625ZM54.3745 33.125C53.7565 33.125 53.1523 32.9417 52.6384 32.5984C52.1245 32.255 51.7239 31.7669 51.4874 31.1959C51.2509 30.6249 51.189 29.9965 51.3096 29.3904C51.4302 28.7842 51.7278 28.2273 52.1648 27.7903C52.6019 27.3533 53.1587 27.0556 53.7649 26.9351C54.3711 26.8145 54.9994 26.8764 55.5704 27.1129C56.1414 27.3494 56.6295 27.75 56.9729 28.2639C57.3162 28.7778 57.4995 29.3819 57.4995 30C57.4986 30.8285 57.169 31.6228 56.5832 32.2087C55.9973 32.7945 55.203 33.1241 54.3745 33.125ZM47.2352 51.6087C47.928 51.6086 48.6108 51.4439 49.2275 51.1282C49.8441 50.8126 50.377 50.3549 50.7822 49.793C51.1874 49.2311 51.4533 48.581 51.5581 47.8962C51.6629 47.2114 51.6035 46.5115 51.3848 45.8542C51.1662 45.1968 50.7945 44.6008 50.3004 44.1152C49.8063 43.6296 49.204 43.2683 48.5429 43.061C47.8819 42.8538 47.1811 42.8065 46.4982 42.9231C45.8153 43.0397 45.1699 43.3168 44.6151 43.7317L41.932 41.0486C41.874 40.9901 41.8051 40.9437 41.7292 40.9119C41.6532 40.8802 41.5718 40.8637 41.4895 40.8636C41.4072 40.8634 41.3256 40.8794 41.2496 40.9108C41.1735 40.9423 41.1044 40.9884 41.0462 41.0466C40.9879 41.1048 40.9418 41.1739 40.9104 41.25C40.879 41.326 40.8629 41.4076 40.8631 41.4899C40.8632 41.5722 40.8797 41.6536 40.9114 41.7296C40.9431 41.8055 40.9896 41.8744 41.048 41.9324L43.7318 44.6161C43.1031 45.4591 42.7985 46.5001 42.8738 47.549C42.949 48.5979 43.399 49.5847 44.1416 50.3293C44.5476 50.7358 45.0299 51.0581 45.5608 51.2776C46.0917 51.4972 46.6607 51.6097 47.2352 51.6087ZM45.0255 45.0261C45.4626 44.589 46.0194 44.2914 46.6256 44.1708C47.2318 44.0502 47.8601 44.1121 48.4311 44.3486C49.0022 44.5852 49.4902 44.9857 49.8336 45.4996C50.177 46.0135 50.3603 46.6177 50.3603 47.2358C50.3603 47.8538 50.177 48.458 49.8336 48.9719C49.4902 49.4858 49.0022 49.8864 48.4311 50.1229C47.8601 50.3594 47.2318 50.4213 46.6256 50.3007C46.0194 50.1801 45.4626 49.8825 45.0255 49.4455C44.4404 48.8589 44.1118 48.0643 44.1118 47.2358C44.1118 46.4073 44.4404 45.6126 45.0255 45.0261ZM34.3745 54.375C34.3731 53.3234 33.9935 52.3074 33.305 51.5125C32.6166 50.7176 31.6651 50.1969 30.6245 50.0454V46.25C30.6245 46.0843 30.5587 45.9253 30.4415 45.8081C30.3243 45.6909 30.1653 45.625 29.9995 45.625C29.8338 45.625 29.6748 45.6909 29.5576 45.8081C29.4404 45.9253 29.3745 46.0843 29.3745 46.25V50.0454C28.5445 50.1652 27.7664 50.521 27.1329 51.0705C26.4994 51.62 26.0371 52.34 25.8012 53.1448C25.5653 53.9495 25.5656 54.8051 25.8022 55.6097C26.0388 56.4143 26.5016 57.1339 27.1356 57.6829C27.7696 58.2318 28.548 58.587 29.3781 58.7062C30.2082 58.8253 31.0551 58.7033 31.8179 58.3548C32.5806 58.0062 33.2271 57.4458 33.6804 56.7402C34.1337 56.0346 34.3746 55.2136 34.3745 54.375ZM26.8745 54.375C26.8745 53.757 27.0578 53.1528 27.4012 52.6389C27.7446 52.125 28.2326 51.7244 28.8036 51.4879C29.3747 51.2514 30.003 51.1895 30.6092 51.3101C31.2154 51.4306 31.7722 51.7283 32.2092 52.1653C32.6463 52.6023 32.9439 53.1592 33.0645 53.7654C33.1851 54.3715 33.1232 54.9999 32.8866 55.5709C32.6501 56.1419 32.2496 56.63 31.7357 56.9734C31.2218 57.3167 30.6176 57.5 29.9995 57.5C29.171 57.4991 28.3767 57.1695 27.7909 56.5837C27.205 55.9978 26.8755 55.2035 26.8745 54.375ZM18.951 41.0485C18.893 40.9905 18.8241 40.9444 18.7483 40.913C18.6724 40.8816 18.5911 40.8654 18.5091 40.8654C18.427 40.8654 18.3457 40.8816 18.2699 40.913C18.194 40.9444 18.1251 40.9905 18.0671 41.0485L15.384 43.7316C14.498 43.0682 13.3936 42.7649 12.2931 42.8829C11.1926 43.0009 10.1776 43.5314 9.45244 44.3676C8.72728 45.2038 8.34577 46.2836 8.38469 47.3897C8.42362 48.4959 8.8801 49.5462 9.66225 50.3294C10.4444 51.1125 11.4942 51.5703 12.6003 51.6107C13.7064 51.651 14.7867 51.2709 15.6238 50.5468C16.4609 49.8227 16.9927 48.8084 17.1121 47.708C17.2315 46.6076 16.9296 45.5029 16.2673 44.6161L18.951 41.9323C19.0682 41.8151 19.134 41.6562 19.134 41.4904C19.134 41.3247 19.0682 41.1657 18.951 41.0485ZM14.9735 49.4455C14.5366 49.882 13.98 50.1791 13.3742 50.2994C12.7683 50.4197 12.1405 50.3576 11.5699 50.1211C10.9993 49.8846 10.5117 49.4843 10.1686 48.9707C9.82551 48.4571 9.64239 47.8533 9.64239 47.2356C9.64239 46.618 9.82551 46.0142 10.1686 45.5006C10.5117 44.987 10.9993 44.5867 11.5699 44.3501C12.1405 44.1136 12.7683 44.0516 13.3742 44.1719C13.98 44.2921 14.5366 44.5893 14.9735 45.0258C15.5587 45.6124 15.8874 46.4071 15.8874 47.2356C15.8874 48.0642 15.5587 48.8589 14.9735 49.4455ZM9.95415 30.625H13.7495C13.9153 30.625 14.0743 30.5592 14.1915 30.442C14.3087 30.3247 14.3745 30.1658 14.3745 30C14.3745 29.8343 14.3087 29.6753 14.1915 29.5581C14.0743 29.4409 13.9153 29.375 13.7495 29.375H9.95415C9.79614 28.2803 9.22933 27.286 8.3678 26.5923C7.50627 25.8986 6.41397 25.557 5.31072 25.6362C4.20747 25.7155 3.17517 26.2096 2.42158 27.0192C1.66798 27.8289 1.24902 28.8939 1.24902 30C1.24902 31.1061 1.66798 32.1711 2.42158 32.9808C3.17517 33.7904 4.20747 34.2846 5.31072 34.3638C6.41397 34.443 7.50627 34.1014 8.3678 33.4077C9.22933 32.714 9.79614 31.7198 9.95415 30.625ZM5.62453 33.125C5.00646 33.125 4.40227 32.9417 3.88837 32.5984C3.37446 32.255 2.97393 31.7669 2.7374 31.1959C2.50088 30.6249 2.43899 29.9965 2.55957 29.3904C2.68015 28.7842 2.97778 28.2273 3.41482 27.7903C3.85186 27.3533 4.40868 27.0556 5.01487 26.9351C5.62106 26.8145 6.24939 26.8764 6.82041 27.1129C7.39143 27.3494 7.87949 27.75 8.22287 28.2639C8.56625 28.7778 8.74953 29.3819 8.74953 30C8.74858 30.8285 8.41904 31.6228 7.83319 32.2087C7.24735 32.7945 6.45304 33.1241 5.62453 33.125ZM12.7638 17.1393C13.7087 17.1418 14.6286 16.836 15.384 16.2683L18.0671 18.9515C18.125 19.0099 18.1939 19.0563 18.2699 19.0881C18.3458 19.1199 18.4273 19.1363 18.5096 19.1365C18.5919 19.1367 18.6734 19.1206 18.7495 19.0892C18.8256 19.0578 18.8947 19.0116 18.9529 18.9535C19.0111 18.8953 19.0572 18.8261 19.0887 18.7501C19.1201 18.674 19.1362 18.5925 19.136 18.5102C19.1358 18.4279 19.1194 18.3464 19.0876 18.2704C19.0559 18.1945 19.0095 18.1256 18.951 18.0676L16.2673 15.3839C16.896 14.5409 17.2005 13.5 17.1253 12.4511C17.05 11.4021 16.6 10.4153 15.8575 9.6707C15.3487 9.162 14.7224 8.78661 14.0339 8.57779C13.3454 8.36897 12.616 8.33316 11.9104 8.47353C11.2048 8.61391 10.5447 8.92613 9.98854 9.38254C9.4324 9.83896 8.9974 10.4255 8.72207 11.0902C8.44674 11.7549 8.33958 12.4772 8.41008 13.1932C8.48058 13.9092 8.72657 14.5967 9.12625 15.1949C9.52593 15.7931 10.067 16.2836 10.7014 16.6227C11.3359 16.9619 12.0443 17.1394 12.7637 17.1395L12.7638 17.1393ZM10.5541 10.5546C10.9911 10.1175 11.5479 9.8199 12.1541 9.69931C12.7603 9.57873 13.3887 9.64061 13.9597 9.87713C14.5307 10.1137 15.0188 10.5142 15.3622 11.0281C15.7055 11.542 15.8888 12.1462 15.8888 12.7643C15.8888 13.3823 15.7055 13.9865 15.3622 14.5004C15.0188 15.0143 14.5307 15.4149 13.9597 15.6514C13.3887 15.8879 12.7603 15.9498 12.1541 15.8292C11.5479 15.7086 10.9911 15.411 10.5541 14.974C10.2627 14.6844 10.0315 14.3401 9.87374 13.9609C9.71596 13.5817 9.63473 13.175 9.63473 12.7643C9.63473 12.3535 9.71596 11.9468 9.87374 11.5676C10.0315 11.1884 10.2627 10.8441 10.5541 10.5546Z" fill="#060614"/>
</svg>
