<svg width="84" height="83" viewBox="0 0 84 83" fill="none" xmlns="http://www.w3.org/2000/svg">
<g opacity="0.1">
<path d="M7.16315 31.5843C9.62518 22.8173 15.2309 15.3182 22.9475 10.4679C29.9818 6.04641 38.4369 4.15587 46.755 5.14373C52.702 5.85023 58.3892 7.99114 63.2753 11.3039H59.1778V16.1713H72.6851V2.92023H67.8177V8.57577C61.9066 4.08788 54.797 1.19731 47.3291 0.310215C37.9097 -0.808432 28.3308 1.33524 20.3571 6.34675C11.616 11.8408 5.26612 20.3363 2.47697 30.2683C-0.292224 40.1286 0.656533 50.6016 5.14816 59.758L9.51809 57.6142C5.55463 49.5346 4.71832 40.2902 7.16315 31.5843Z" fill="#060614"/>
<path d="M78.6133 21.0723L74.3777 23.4705C79.0279 31.6835 80.3204 41.2606 78.0173 50.4385C75.707 59.6443 70.0073 67.4971 61.9684 72.5498C56.1597 76.2009 49.4434 78.1072 42.6061 78.1069C40.7243 78.1067 38.832 77.9621 36.9486 77.6701C30.3331 76.6434 24.1523 73.863 19.0603 69.6909H24.4238V64.8235H10.2646V78.777H15.1321V72.7463C21.0479 77.8607 28.3563 81.2626 36.2022 82.48C38.3345 82.8109 40.4751 82.9745 42.6059 82.9745C50.354 82.9743 57.9702 80.8121 64.5586 76.6712C73.6649 70.9475 80.121 62.0522 82.7382 51.6233C85.3471 41.2275 83.8821 30.3778 78.6133 21.0723Z" fill="#060614"/>
<path d="M44.999 57.4567V51.4442C44.2081 51.6016 43.3913 51.6856 42.5548 51.6856C41.6351 51.6856 40.7394 51.5829 39.8757 51.3936V57.4567H30.4292C28.446 57.4567 26.5592 58.0816 24.9922 59.2369C29.4971 63.6547 35.664 66.3838 42.4571 66.3838C49.2415 66.3838 55.4011 63.6618 59.9046 59.2541C58.3368 58.0876 56.4488 57.4567 54.4452 57.4567H44.999Z" fill="#060614"/>
<path d="M42.458 16.4648C28.6951 16.4648 17.498 27.6617 17.498 41.4248C17.498 46.6451 19.1101 51.4953 21.8608 55.5063C24.3065 53.6166 27.2884 52.5895 30.4298 52.5895H35.0084V49.143C32.0005 46.8578 30.0539 43.2449 30.0539 39.1847V35.1111V30.8817C30.0539 26.925 33.2729 23.706 37.2295 23.706H47.8815C51.8381 23.706 55.0571 26.925 55.0571 30.8817V39.1849C55.0571 43.3495 53.0082 47.0425 49.8676 49.3157V52.5895H54.4462C57.5647 52.5895 60.5955 53.6414 63.0406 55.5271C65.8003 51.5121 67.418 46.654 67.418 41.4248C67.4177 27.6619 56.2209 16.4648 42.458 16.4648Z" fill="#060614"/>
<path d="M49.5952 42.1356C48.8256 42.3863 48.0054 42.5234 47.1533 42.5234H43.5952V37.6555H47.1533C48.8272 37.6555 50.1893 36.2934 50.1893 34.6195V30.881C50.1893 29.6085 49.154 28.5732 47.8816 28.5732H37.2296C35.9571 28.5732 34.9219 29.6085 34.9219 30.881V35.1104V39.184C34.9219 43.3931 38.3463 46.8177 42.5556 46.8177C45.7189 46.8179 48.4388 44.8835 49.5952 42.1356Z" fill="#060614"/>
</g>
</svg>
