<svg width="113" height="91" viewBox="0 0 113 91" fill="none" xmlns="http://www.w3.org/2000/svg">
<g opacity="0.1">
<path d="M30.7838 23.4625L39.402 31.8666C40.3163 32.7615 40.7443 34.0455 40.5303 35.31L39.0907 43.6752C44.0514 39.8233 50.2184 37.6639 56.5798 37.6639C62.9412 37.6639 69.1081 39.8233 74.0689 43.6752L72.6293 35.31C72.4153 34.0455 72.8433 32.7615 73.7576 31.8666L82.3757 23.4625C84.6908 21.2253 83.4068 17.3151 80.2358 16.8482L68.3105 15.1168C67.046 14.9222 65.9566 14.1441 65.3924 12.9963L60.0621 2.1799C58.6419 -0.699288 54.5177 -0.699288 53.0975 2.1799L47.7672 12.9963C47.203 14.1441 46.1136 14.9222 44.8491 15.1168L32.9238 16.8482C29.7528 17.3151 28.4688 21.2253 30.7838 23.4625Z" fill="#060614"/>
<path d="M110.991 33.0085L103.793 31.9619C103.03 31.851 102.373 31.3724 102.031 30.6818L98.8109 24.1589C97.953 22.4197 95.4726 22.4197 94.6147 24.1589L91.3951 30.6818C91.0546 31.3724 90.3951 31.851 89.6326 31.9619L82.4346 33.0085C80.5145 33.2867 79.748 35.6464 81.137 37.0004L86.3468 42.0779C86.8993 42.6148 87.1502 43.3911 87.0199 44.1498L85.7904 51.3185C85.4616 53.2309 87.4693 54.688 89.1851 53.7853L95.6244 50.4003C96.3053 50.0424 97.1204 50.0424 97.8032 50.4003L104.242 53.7853C105.958 54.688 107.966 53.2309 107.637 51.3185L106.408 44.1498C106.277 43.3911 106.528 42.6168 107.081 42.0779L112.291 37.0004C113.68 35.6464 112.911 33.2886 110.991 33.0085Z" fill="#060614"/>
<path d="M6.08116 42.0779C6.63365 42.6148 6.88461 43.3911 6.75427 44.1498L5.52478 51.3185C5.19601 53.2309 7.20366 54.688 8.91949 53.7853L15.3588 50.4003C16.0396 50.0424 16.8548 50.0424 17.5376 50.4003L23.9769 53.7853C25.6946 54.688 27.7003 53.2309 27.3716 51.3185L26.1421 44.1498C26.0117 43.3911 26.2627 42.6168 26.8152 42.0779L32.025 37.0004C33.414 35.6464 32.6475 33.2886 30.7274 33.0085L23.5294 31.9619C22.7668 31.851 22.1073 31.3724 21.7669 30.6818L18.5473 24.1589C17.6893 22.4197 15.209 22.4197 14.351 24.1589L11.1314 30.6818C10.791 31.3724 10.1315 31.851 9.36888 31.9619L2.17092 33.0085C0.250813 33.2867 -0.515673 35.6464 0.873339 37.0004L6.08311 42.0779H6.08116Z" fill="#060614"/>
<path d="M74.4584 49.2976C69.984 44.5314 63.6225 41.5549 56.5802 41.5549C49.5379 41.5549 43.1764 44.5314 38.702 49.2976C34.5583 53.6747 32.0293 59.6082 32.0293 66.1058C32.0293 79.6457 43.0208 90.6372 56.5802 90.6372C70.1396 90.6372 81.1311 79.6457 81.1311 66.1058C81.1311 59.6082 78.6021 53.6747 74.4584 49.2976ZM69.447 61.2715L55.0511 75.6674C54.6718 76.0468 54.1737 76.2374 53.6757 76.2374C53.1777 76.2374 52.6797 76.0468 52.3003 75.6674L42.9196 66.2867C42.159 65.5261 42.159 64.2966 42.9196 63.5359C43.6803 62.7753 44.9098 62.7753 45.6704 63.5359L53.6757 71.5412L66.6962 58.5207C67.4569 57.76 68.6864 57.76 69.447 58.5207C70.2077 59.2813 70.2077 60.5108 69.447 61.2715Z" fill="#060614"/>
</g>
</svg>
