<svg width="91" height="89" viewBox="0 0 91 89" fill="none" xmlns="http://www.w3.org/2000/svg">
<g opacity="0.15">
<path d="M45.6801 5.80809C45.6801 4.22891 44.3999 2.94873 42.8207 2.94873C41.2415 2.94873 39.9613 4.22891 39.9613 5.80809C39.9613 6.93265 40.6105 7.90559 41.5546 8.37257L38.8017 18.9331C35.8787 30.1462 27.1265 38.9056 15.9158 41.8376L5.38335 44.5923C4.90215 43.6911 3.95237 43.0778 2.85936 43.0778C1.28018 43.0778 0 44.358 0 45.9372C0 47.5164 1.28018 48.7966 2.85936 48.7966C4.13599 48.7966 5.21721 47.9599 5.58465 46.805L15.8352 49.486C27.0888 52.4293 35.8615 61.2432 38.7521 72.5105L41.56 83.4553C40.613 83.9212 39.9613 84.8957 39.9613 86.0225C39.9613 87.6016 41.2415 88.8818 42.8207 88.8818C44.3999 88.8818 45.6801 87.6016 45.6801 86.0225C45.6801 84.778 44.8851 83.7193 43.7754 83.3263L46.5597 72.4733C49.4453 61.2258 58.1929 52.4214 69.4215 49.4633L80.0179 46.6717C80.3421 47.895 81.4568 48.7966 82.7821 48.7966C84.3612 48.7966 85.6414 47.5164 85.6414 45.9372C85.6414 44.358 84.3612 43.0778 82.7821 43.0778C81.6384 43.0778 80.6515 43.7493 80.1942 44.7195L69.341 41.8602C58.1553 38.9134 49.4281 30.1635 46.5103 18.9702L43.7815 8.50204C44.8881 8.10735 45.6801 7.05021 45.6801 5.80809Z" fill="#339449"/>
<path d="M75.6648 2.24881L75.7234 2.02414L75.5153 1.9212C75.2921 1.81079 75.1396 1.58124 75.1396 1.3166C75.1396 0.944387 75.4413 0.642647 75.8135 0.642647C76.1857 0.642647 76.4875 0.944386 76.4875 1.3166C76.4875 1.60892 76.3012 1.85847 76.04 1.95164L75.7939 2.03941L75.8598 2.29224L76.7752 5.8038C77.78 9.6583 80.7853 12.6714 84.6371 13.6862L88.2779 14.6453L88.4442 14.6891L88.2187 14.7486L84.6641 15.685C80.7975 16.7037 77.7852 19.7355 76.7915 23.6087L75.8575 27.2494L75.7927 27.502L76.0386 27.5891C76.3005 27.6819 76.4875 27.9318 76.4875 28.2247C76.4875 28.5969 76.1857 28.8986 75.8135 28.8986C75.4413 28.8986 75.1396 28.5969 75.1396 28.2247C75.1396 27.9595 75.2926 27.7296 75.5165 27.6194L75.7245 27.5171L75.6669 27.2926L74.725 23.6212C73.7296 19.7412 70.7086 16.706 66.8333 15.6925L63.3948 14.7932L63.1329 14.7247L63.0508 14.9826C62.9641 15.2551 62.7089 15.4519 62.4084 15.4519C62.0362 15.4519 61.7344 15.1502 61.7344 14.778C61.7344 14.4058 62.0362 14.104 62.4084 14.104C62.6656 14.104 62.8897 14.2481 63.0035 14.4612L63.1095 14.6597L63.3272 14.6028L66.8604 13.6787C70.7209 12.669 73.7348 9.65267 74.7413 5.79136L75.6648 2.24881ZM88.5671 14.9513L88.5016 14.7043L88.5073 14.7058L88.6085 14.4911C88.7166 14.2618 88.9495 14.104 89.2186 14.104C89.5908 14.104 89.8926 14.4058 89.8926 14.778C89.8926 15.1502 89.5908 15.4519 89.2186 15.4519C88.9067 15.4519 88.6435 15.2397 88.5671 14.9513Z" stroke="#339449" stroke-width="0.57045"/>
</g>
</svg>
